<?xml version="1.0" encoding="utf-8"?>
<!-- Generator: Adobe Illustrator 16.0.0, SVG Export Plug-In . SVG Version: 6.00 Build 0)  -->
<!DOCTYPE svg PUBLIC "-//W3C//DTD SVG 1.1//EN" "http://www.w3.org/Graphics/SVG/1.1/DTD/svg11.dtd">
<svg version="1.1" id="Lager_1" xmlns="http://www.w3.org/2000/svg" xmlns:xlink="http://www.w3.org/1999/xlink" x="0px" y="0px"
	 width="1190.55px" height="841.89px" viewBox="0 0 1190.55 841.89" enable-background="new 0 0 1190.55 841.89"
	 xml:space="preserve">
<g>
	<path fill="#88BB46" d="M990,418.89c8.22-36.986,80.219-234.945,93.918-269.192c10.959-26.027,21.918-50.685,35.616-75.342
		c-6.85,73.973-19.178,147.945-26.027,220.548c-5.479,58.904-4.109,124.658-16.438,179.452"/>
	<g>
		<g>
			<g>
				<path fill="#302D31" d="M990,418.89c11.798-34.192,21.649-56.698,35.657-97.604c7.706-22.101,31.149-88.465,53.749-148.85
					c10.937-30.089,24.059-58.081,34.043-78.246c2.588-5.016,4.932-9.595,7.129-13.564l1.566-2.892l0.741-1.369l0.046-0.084
					c6.53,2.01-8.869-2.793-7.287-2.273l-0.005,0.048l-0.019,0.189l-0.038,0.376l-0.075,0.741c-0.197,1.956-0.378,3.747-0.541,5.363
					c-0.651,6.461-1.018,10.102-1.018,10.102c1.777-0.1-31.855,232.713-29.129,280.13c-2.491,43.131-2.806,67.506-7.752,103.397
					c9.847-34.904,12.938-59.785,15.541-102.972c-2.611-47.144,30.818-279.334,29.1-279.761c0,0,0.371-3.657,1.028-10.147
					c0.164-1.623,0.347-3.422,0.546-5.387l0.075-0.744l0.038-0.377l0.02-0.19l0.005-0.048c1.594,0.46-13.836-4.263-7.316-2.239
					l-0.046,0.085l-0.754,1.389l-1.592,2.935c-2.233,4.032-4.613,8.673-7.239,13.759c-10.182,20.553-23.279,48.444-34.416,79.018
					c-22.655,60.489-46.105,126.875-53.767,149.043C1004.389,359.686,997.021,383.274,990,418.89z"/>
			</g>
		</g>
	</g>
</g>
<g>
	<path fill="#88BB46" d="M883.918,420.931c0-28.767,4.109-58.904,0-87.671c-5.479-30.137-21.918-57.534-30.137-87.671
		c49.314,52.055,71.232,121.917,71.232,186.301"/>
	<g>
		<g>
			<g>
				<path fill="#1A171B" d="M883.918,420.931c2.574-18.018,5.066-29.987,5.633-51.788c0.086-5.887,0.402-17.772-1.292-32.301
					c-1.673-14.935-7.643-31.093-13.635-46.123c-6.093-14.998-11.918-29.061-15.167-39.713c-0.447-1.321-0.774-2.604-1.14-3.809
					l-0.513-1.763l-0.246-0.843l-0.008-0.026c-13.199,7.417-3.648,2.067-6.59,3.728l0.036,0.04l0.072,0.081l0.144,0.16l0.283,0.316
					c1.498,1.672,2.798,3.122,3.865,4.312c2.134,2.379,3.337,3.719,3.337,3.719c-0.117-0.016,19.359,21.702,33.302,50.366
					c14.684,28.284,22.687,62.355,24.465,73.696c3.738,20.976,5.824,32.898,8.549,50.907c2.262-18.04,2.852-30.737-0.874-52.302
					c-1.764-11.662-9.979-46.68-25.122-75.819c-14.379-29.525-34.521-51.952-34.4-51.929c0,0-1.24-1.387-3.441-3.847
					c-1.102-1.23-2.442-2.729-3.99-4.456l-0.293-0.327l-0.147-0.166l-0.074-0.083l-0.038-0.042c-2.95,1.653,6.578-3.729-6.619,3.7
					l0.008,0.027l0.255,0.881l0.534,1.841c0.378,1.256,0.724,2.604,1.184,3.971c3.373,11.079,9.325,25.456,15.343,40.295
					c5.921,14.8,11.644,30.605,13.12,44.129c1.627,13.841,1.351,25.459,1.295,31.242
					C881.319,390.382,881.508,402.854,883.918,420.931z"/>
			</g>
		</g>
	</g>
</g>
<g>
	<path fill="#88BB46" d="M933.232,427.78c0-91.781-1.369-183.562,0-273.973c24.658,50.685,31.507,115.068,31.507,171.233
		c0,23.288,0,47.945-1.369,72.603c0,8.219,0,17.808-1.37,26.027c0,6.851,2.739,16.439-1.37,12.329"/>
	<g>
		<g>
			<g>
				<path fill="#1A171B" d="M933.232,427.78c2.463-26.431,3.765-44.391,3.673-76.026c-0.032-17.134-0.374-68.597-0.336-115.756
					c0.022-23.581,0.128-46.087,0.348-62.694c0.046-4.152,0.089-7.936,0.127-11.276c0.019-1.67,0.036-3.229,0.052-4.668l0.023-2.067
					l0.011-0.963l0.003-0.233l0.001-0.116l0.001-0.058v-0.029c-3.306,0.727,7.4-1.668-7.411,1.623l0.185,0.404
					c1.945,4.253,3.043,6.648,3.043,6.648c0.239-0.257,17.365,38.935,22.94,85.677c6.714,46.35,4.645,97.892,4.723,114.957
					c-0.107,15.84-0.726,27.923-0.125,39.976c0.22,5.815,0.561,11.475,0.248,17.248c-0.323,2.787,0.154,6.499,0.812,9.287
					c0.299,1.521,0.643,3.05,0.867,4.598c0.507,1.671-0.075,3.488-1.786,1.688c0.476,0.424,1.25,1.714,2.193,0.779
					c0.454-0.853,0.447-1.7,0.499-2.508c0.065-1.632,0.001-3.206-0.022-4.748c-0.071-3.329-0.104-5.632,0.715-8.673
					c1.292-5.912,1.76-11.705,2.198-17.622c0.692-11.436,2.037-24.097,2.201-39.898c-0.021-17.078,2.092-68.887-4.747-116.161
					c-5.65-47.5-23.312-88.011-23.587-87.766c0,0-1.132-2.481-3.146-6.884l-0.191-0.418c-14.815,3.298-4.107,0.931-7.414,1.674
					v0.029l-0.001,0.058l-0.001,0.116l-0.003,0.234l-0.012,0.965l-0.024,2.07c-0.018,1.441-0.036,3.003-0.056,4.676
					c-0.04,3.345-0.085,7.135-0.135,11.294c-0.23,16.635-0.348,39.17-0.378,62.772c-0.055,47.207,0.287,98.673,0.385,115.802
					C929.318,383.421,930.712,401.351,933.232,427.78z"/>
			</g>
		</g>
	</g>
</g>
<g>
	<path fill="#88BB46" d="M977.068,425.041c10.959-43.836,13.699-89.042,27.397-131.507c10.959-31.507,17.809-69.863,34.246-97.26
		c-2.739,53.424-9.589,109.589-13.698,164.383c-2.739,30.137-8.219,78.083-13.698,100"/>
	<g>
		<g>
			<g>
				<path fill="#1A171B" d="M977.068,425.041c8.034-22.37,11.789-38.253,16.59-66.038c1.33-7.521,3.804-22.606,8.005-40.621
					c4.017-17.857,11.959-38.62,17.31-59.122c5.674-20.27,11.824-39.224,18.333-52.15c1.569-3.259,3.204-6.093,4.63-8.605
					l0.066-0.118l0.033-0.059l0.017-0.029c6.485,1.962-8.815-2.712-7.241-2.211l-0.017,0.275l-0.032,0.543l-0.063,1.058l-0.118,2
					c-0.076,1.281-0.146,2.454-0.209,3.512c-0.252,4.232-0.394,6.616-0.394,6.616c0.749-0.166-13.038,152.84-16.216,183.029
					c-3.342,28.008-3.771,43.987-6.447,67.535c7.566-22.565,10.729-38.562,14.198-66.654c3.356-30.685,16.964-183.145,16.25-183.421
					c0,0,0.145-2.399,0.401-6.658c0.064-1.064,0.135-2.245,0.213-3.534l0.121-2.013l0.064-1.065l0.032-0.547l0.017-0.277
					c1.58,0.46-13.731-4.194-7.259-2.207l-0.018,0.031l-0.036,0.062l-0.07,0.126c-1.53,2.681-3.275,5.713-4.934,9.147
					c-6.88,13.659-13.173,33.149-18.868,53.449c-5.297,20.315-13.187,40.833-17.407,59.47c-4.278,18.38-6.746,33.568-8.051,41.122
					C981.264,385.617,980.25,401.51,977.068,425.041z"/>
			</g>
		</g>
	</g>
</g>
<g>
	<path fill="#88BB46" d="M1071.589,462.027c-4.109-75.343-12.328-149.316-4.109-224.658c-2.74,39.726-16.438,83.562-21.918,123.288
		c-2.739,19.178-4.109,36.986-8.219,56.165c-1.37,5.479-8.22,38.356-4.11,31.507"/>
	<g>
		<g>
			<g>
				<path fill="#1A171B" d="M1071.59,462.027c1.345-20.807,1.702-34.951,0.16-59.658c-0.777-13.385-3.647-53.559-3.824-90.343
					c-0.459-36.814,2.954-70.049,3.028-70.028c0,0,0.05-0.519,0.144-1.498c0.048-0.49,0.105-1.094,0.175-1.807l0.053-0.555
					l0.028-0.292l0.004-0.038c-3.467-0.313,7.762,0.675-7.771-0.707l-0.001,0.019l-0.007,0.075l-0.013,0.151l-0.111,1.294
					c-0.282,3.653-0.768,8.903-1.631,15.276c-1.661,12.755-4.985,29.956-8.91,47.988c-3.887,18.032-8.067,36.984-10.518,53.36
					c-2.443,16.343-3.784,29.674-4.743,36.262c-1.601,12.238-2.99,21.557-4.453,30.72c-0.633,4.598-1.105,9.085-1.434,13.742
					c-0.159,2.329-0.293,4.698-0.329,7.151c-0.019,1.226-0.017,2.473,0.067,3.75c0.056,0.641,0.088,1.281,0.302,1.953
					c0.39,1.217,1.418-0.104,1.427-0.516c-1.209,1.807-1.071-0.314-0.822-1.396c0.207-1.213,0.483-2.4,0.773-3.568
					c0.576-2.334,1.213-4.59,1.837-6.808c1.26-4.436,2.518-8.725,3.778-13.126c2.721-8.747,4.919-18.532,6.584-30.855
					c1.532-13.595,6.434-52.995,15.205-89.025c3.925-18.07,7.293-35.527,8.985-48.598c0.88-6.528,1.377-11.944,1.665-15.723
					l0.113-1.337l0.013-0.156l0.007-0.077l0.001-0.019c-15.532-1.383-4.307-0.373-7.773-0.676l-0.004,0.038l-0.028,0.296
					l-0.054,0.562c-0.069,0.723-0.128,1.336-0.175,1.833c-0.095,0.994-0.146,1.52-0.146,1.52
					c-0.076-0.024-3.566,33.714-3.116,70.857c0.164,37.135,3.048,77.417,3.89,90.803
					C1065.631,427.606,1067.959,441.5,1071.59,462.027z"/>
			</g>
		</g>
	</g>
</g>
<g>
	<path fill="#88BB46" d="M1122.274,486.684c-12.329-87.671-4.11-172.602,0-258.903c-19.179,47.945-24.658,105.479-28.768,157.534
		c-2.739,17.808-9.589,83.561-1.37,89.041"/>
	<g>
		<g>
			<g>
				<path fill="#1A171B" d="M1122.275,486.684c-0.694-24.041-0.889-40.184-1.983-68.65c-0.836-15.406-0.98-61.81,1.362-104.403
					c2.17-42.578,4.404-81.399,4.302-81.404c0,0,0.031-0.606,0.089-1.751c0.029-0.572,0.064-1.279,0.107-2.112l0.016-0.318
					l0.002-0.041l0.001-0.021c-3.354-0.733,7.511,1.612-7.521-1.648l-0.029,0.078l-0.061,0.158l-0.25,0.66l-0.548,1.449
					c-1.604,4.07-3.746,9.972-6.063,17.233c-4.596,14.53-9.476,34.583-12.886,55.813c-7.021,42.732-9.105,88.748-11.761,104.328
					c-1.406,14.329-1.843,25.63-1.544,36.368c0.169,5.368,0.505,10.597,1.217,15.976c1.039,5.127,1.05,11.492,5.411,15.959
					c-3.206-5.012-2-10.986-2.11-16.107c0.249-5.279,0.72-10.393,1.204-15.646c1.005-10.506,2.133-21.599,3.583-35.758
					c2.648-15.02,4.889-62.238,11.745-103.846c3.355-20.939,8.132-40.578,12.599-54.737c2.253-7.074,4.328-12.807,5.881-16.752
					l0.53-1.406l0.241-0.64l0.058-0.154l0.029-0.075c-15.027-3.273-4.166-0.896-7.521-1.621l-0.001,0.02l-0.002,0.041l-0.016,0.317
					c-0.042,0.832-0.077,1.537-0.105,2.108c-0.057,1.142-0.087,1.747-0.087,1.747c0.102,0.006-2.158,38.703-4.351,81.412
					c-2.369,42.698-2.229,89.507-1.318,105.07C1113.721,447.061,1116.641,463.318,1122.275,486.684z"/>
			</g>
		</g>
	</g>
</g>
<g>
	<g>
		<g>
			<g>
				<path fill="#1A171B" d="M925.014,426.41c2.313-21.565,3.014-36.443,0.58-62.277c-1.244-13.977-6.482-56.004-16.828-93.459
					c-9.623-37.551-25.644-69.811-26.951-69.492c-0.219,0.254-4.643-8.266-16.086-17.029c-11.005-8.996-30.035-16.988-50.457-15.524
					c-20.404,0.908-40.26,11.239-52.885,23.517c-12.936,12.07-20.796,24.071-24.861,29.814
					c-14.686,21.571-20.237,35.193-28.951,55.136c12.918-17.273,20.889-29.659,35.387-50.727
					c3.974-5.583,11.678-17.216,23.751-28.449c11.789-11.425,29.609-20.583,48.014-21.455c18.353-1.322,35.359,5.821,45.214,13.868
					c10.259,7.815,14.227,15.487,14.434,15.248c0.823-0.989,16.248,29.947,25.814,67.139c10.165,36.847,15.355,78.411,16.646,92.207
					C920.355,390.45,922.342,404.871,925.014,426.41z"/>
			</g>
		</g>
	</g>
</g>
<g>
	<path fill="#9E6718" d="M705.836,274.355c-46.575-10.959-54.795,75.342-20.548,73.973c12.328,0,58.903-84.932,13.698-75.343"/>
	<g>
		<g>
			<g>
				<path fill="#1A171B" d="M705.836,274.355c-8.847-4.326-18.869-5.353-29.312,3.39c-6.254,4.138-17.455,23.368-16.089,42.696
					c0.247,9.457,3.08,18.824,8.167,24.463c4.998,5.782,10.725,6.666,10.516,6.63c-0.002-0.052,1.219,0.392,3.38,0.584
					c1.305-0.064,1.895,0.368,4.418-0.128c2.435-0.604,3.806-1.739,5.304-2.895c5.522-4.748,10.444-11.878,15.121-19.767
					c9.519-15.586,15.442-35.095,14.866-42.688c0.266-6.527-2.876-13.481-8.604-15.465c-5.414-1.908-10.042-0.25-14.616,1.81
					c10.677,0.705,15.862,3.321,15.419,13.6c0.573,5.557-4.762,23.951-13.842,38.782c-4.305,7.394-9.288,14.295-13.332,17.706
					c-2.374,2.752-6.349,0.488-6.164,0.909c0.045-0.018-3.225-0.383-6.57-4.213c-3.456-3.701-6.045-11.341-6.218-19.6
					c-1.157-17.072,8.72-33.644,13.426-36.591C689.646,276.982,695.608,275.023,705.836,274.355z"/>
			</g>
		</g>
	</g>
</g>
<g>
	<path fill="#9E6718" d="M971.589,422.301c19.179-100,27.397-205.479,36.986-306.85c-34.246,6.85-15.068-101.37,17.809-73.973
		c8.219,8.219,8.219,46.576,5.479,58.904c-2.74,19.178-8.22,20.548-24.658,13.699"/>
	<g>
		<g>
			<g>
				<path fill="#1A171B" d="M971.59,422.301c6.931-23.37,11.019-39.464,15.339-68.228c5.974-31.057,21.272-187.934,20.853-187.933
					c0,0,0.909-9.802,2.32-24.987c0.352-3.797,0.736-7.93,1.151-12.329c0.207-2.2,0.42-4.467,0.639-6.792l0.331-3.53l0.169-1.796
					l0.043-0.452l0.021-0.227l0.01-0.113l0.006-0.057c4.173,3.745-5.674-5.171-4.68-4.246l-0.68,0.054
					c-7.46,2.003-11.835-8.055-12.45-18.08c-0.791-10.118,0.705-20.941,3.744-30.699c2.938-9.521,8.323-19.22,14.96-21.54
					c3.14-0.913,6.405,0.138,9.341,2.325c2.113,1.195,3.271,4.816,4.147,8.028c1.677,6.571,2.078,12.424,2.362,16.207
					c0.867,14.212,0.689,25.247-0.793,35.709c-0.734,4.944-1.479,10.428-5.324,12.199c-4.184,1.746-10.218-0.16-15.895-1.734
					c5.411,2.598,10.349,6.004,16.915,4.877c7.013-2.224,8.412-9.298,9.927-14.272c2.861-10.659,3.817-22.565,2.953-37.31
					c-0.303-4.031-0.647-10.043-2.565-17.671c-1.133-3.57-2.005-8.619-7.14-12.401c-3.787-2.931-10.046-5.391-16.294-3.448
					c-11.905,4.834-16.464,16.305-20.084,26.654c-3.328,10.769-4.954,22.264-4.076,33.742c0.553,5.716,1.558,11.546,4.739,16.97
					c2.833,5.675,10.477,9.606,16.599,8.206l1.14-0.132c1.05,0.903-8.818-7.956-4.646-4.176l-0.006,0.057l-0.01,0.114l-0.021,0.227
					l-0.042,0.452l-0.168,1.797l-0.33,3.533c-0.218,2.327-0.429,4.595-0.635,6.796c-0.413,4.403-0.796,8.538-1.145,12.336
					c-1.401,15.191-2.302,24.989-2.302,24.989c0.414,0.07-14.992,156.672-20.805,187.528
					C975.026,381.611,973.624,398.001,971.59,422.301z"/>
			</g>
		</g>
	</g>
</g>
<g>
	<g>
		<g>
			<g>
				<path fill="#1A171B" d="M968.85,149.698c-1.78,12.954-2.645,21.728-1.857,37.067c1.05,16.612,4.739,99.778,4.47,99.78
					c-1.03,0.136,6.131,83.455,3.53,99.474c-1.217,15.013-1.215,23.394-3.403,36.282c6.886-11.119,9.852-20.226,11.188-35.77
					c2.759-17.332-4.574-100.312-3.518-100.229c0.27-0.021-3.298-83.363-4.477-99.961
					C973.873,171.004,972.046,162.375,968.85,149.698z"/>
			</g>
		</g>
	</g>
</g>
<g>
	<path fill="#9E6718" d="M955.15,156.547c47.945,0,27.397-79.452-12.328-64.384c-1.37,13.699,4.109,60.274,17.808,63.014"/>
	<g>
		<g>
			<g>
				<path fill="#1A171B" d="M955.15,156.548c7.976,2.107,16.185,2.468,24.321-6.155c2.072-2.289,5.657-7.747,6.825-15.019
					c1.259-7.208,0.475-15.81-2.336-23.331c-4.89-15.919-19.874-23.784-19.867-23.217c-0.008,0.117-3.518-1.932-9.617-2.375
					c-3.017-0.215-6.609,0.079-10.223,1.166l-2.748,0.858l-0.043,0.014l-0.022,0.007c0.536-0.712-4.762,6.21-2.52,3.292l-0.007,0.09
					l-0.015,0.181l-0.029,0.363l-0.058,0.729l-0.069,1.436c-0.062,1.904-0.059,3.814,0.007,5.726
					c0.438,15.243,3.864,31.396,5.627,36.765c1.471,4.943,3.319,8.725,5.784,11.93c2.414,2.99,5.881,6.321,10.469,6.172
					c-6.271-5.397-5.572-11.478-8.762-20.279c-1.549-4.835-4.851-20.445-5.272-34.835c-0.064-1.784-0.064-3.533-0.015-5.192
					l0.057-1.219l0.046-0.582l0.021-0.289l0.011-0.144l0.006-0.072c2.243-2.933-3.057,3.974-2.503,3.262l0.018-0.005l0.033-0.01
					l2.13-0.659c2.789-0.85,5.402-1.049,7.575-0.898c4.371,0.302,6.926,1.784,6.939,1.694c-0.177-0.408,11.283,5.192,15.661,18.751
					c2.385,6.345,2.98,13.629,1.981,19.329c-0.949,5.776-3.579,9.637-5.013,11.293C968.017,151.305,963.291,153.667,955.15,156.548z
					"/>
			</g>
		</g>
	</g>
</g>
<g>
	<g>
		<g>
			<g>
				<path fill="#1A171B" d="M948.302,77.095c-1.757,1.956-2.819,2.812-2.599,3.326c0.284,0.493,1.17,3.816,1.1,3.891
					c0.06-0.048,0.322,3.741,0.326,4.627c0.074,0.752,1.415,1.196,3.912,1.854c2.486-0.671,3.842-1.129,3.888-1.969
					c0.147-0.846-0.323-5.661-0.415-5.691c0.135,0.028-1.02-5.038-1.75-6.028C952.236,76.218,950.704,76.301,948.302,77.095z"/>
			</g>
		</g>
	</g>
</g>
<g>
	<g>
		<g>
			<g>
				<path fill="#1A171B" d="M677.068,346.958c-2.242-1.241-4.033-0.784-4.287-0.188c-0.478,0.896-1.202,4.166-1.18,4.151
					c-0.017,0.009-0.748,3.19-0.788,3.769c-0.075,0.54,1.261,1.177,3.517,1.857c2.505,0.825,3.978,0.044,4.129-0.308
					c0.188-0.651,0.738-3.599,0.748-3.584c-0.018-0.022,0.762-2.837,0.852-3.074C680.208,349.099,678.715,348.957,677.068,346.958z"
					/>
			</g>
		</g>
	</g>
</g>
<g>
	<path fill="#8BC7E9" d="M42.822,547.603c-21.917,24.658-27.397,67.123-1.37,90.411c15.068,12.329,34.247,16.438,50.685,24.657
		c23.288,10.959,35.616,28.768,49.315,49.315c47.945,75.343,189.041,53.425,267.123,47.945c101.37-6.85,204.109-12.329,306.85-2.74
		c87.671,8.22,202.739,42.466,284.932,0c39.726-20.548,83.562-43.835,36.986-82.191c-24.658-20.548-31.507-23.288,0-39.726
		c19.178-9.59,39.726-16.438,58.904-24.658c35.616-16.438,54.794-57.534,43.835-97.26c-10.959-39.727-76.712-61.645-112.328-75.343
		c-80.822-32.876-178.083-35.616-264.384-45.206c-43.836-4.109-86.302-9.589-130.138-5.479c-15.068,1.37-39.726,1.37-49.314,15.069
		c-9.589,15.068,6.849,26.027-2.74,39.726c-19.178,21.918-80.822,6.85-104.11,15.068"/>
	<g>
		<g>
			<g>
				<path fill="#1A171B" d="M42.821,547.603c-17.377,19.134-24.08,45.505-17.425,68.354c3.29,11.401,10.624,21.592,20.511,28.176
					c9.729,6.561,20.595,10.736,31.14,15.102c10.569,4.357,20.945,9.152,29.863,16.433c9.013,7.226,16.618,16.574,23.805,26.965
					c7.079,10.141,14.031,22.626,25.323,32.021c10.93,9.574,24.291,17.214,39.208,22.566c16.059,6.125,41.347,11.717,72.829,13.197
					c31.482,1.803,68.96-0.438,109.725-4.038c81.4-6.371,177.876-12.726,269.903-9.508c92.25,0.995,178.018,24.812,244.147,24.964
					c32.863,0.865,60.055-3.395,78.308-8.656c18.275-5.364,27.817-10.607,27.83-10.514c0.083-0.055,9.599-4.466,25.999-13.748
					c8.073-4.867,18.298-10.562,27.908-20.866c4.565-5.172,9.237-12.27,9.413-21.162c0.205-8.891-4.367-16.994-9.817-23.549
					c-5.562-6.685-12.589-12.069-19.243-17.638c-6.099-5.312-15.813-12.534-10.703-15.663
					c12.683-10.775,32.613-18.236,51.501-25.856c9.745-4.011,19.543-7.229,29.809-12.579c10.005-5.376,18.987-13.019,26.057-22.303
					c14.413-18.399,20.931-43.374,17.005-67.269c-1.394-11.816-6.988-24.227-15.372-33.022
					c-8.193-9.122-18.052-16.214-28.222-22.358c-20.464-12.21-42.498-20.68-63.961-28.812
					c-42.578-17.744-87.094-27.486-127.631-33.272c-40.674-5.914-77.869-8.793-108.895-11.817
					c-31.014-2.98-56.079-5.708-72.777-7.173c-30.873-2.854-58.755-4.484-84.613-2.634c-12.982,1.106-24.95,1.547-37.316,3.835
					c-11.478,2.141-26.242,7.805-28.807,22.125c-1.197,6.746,1.299,12.776,2.579,17.925c1.579,5.156,1.069,10.297-1.727,14.036
					c-6.969,7.775-18.743,10.214-29.821,11.563c-11.337,1.245-23.058,1.212-35.118,1.265c-11.98,0.302-24.749-0.484-37.165,3.499
					c25.431-5.172,49.35,0.732,72.586-1.474c11.382-1.023,23.916-2.628,32.945-11.745c4.506-5.262,4.919-12.595,3.367-18.324
					c-1.328-5.783-3.095-10.959-2.016-15.717c1.772-9.95,13.364-14.913,24.404-16.675c11.25-1.877,23.978-2.208,36.511-3.094
					c25.312-1.471,52.729,0.309,83.467,3.181c16.7,1.482,41.664,4.211,72.763,7.209c31.065,3.035,68.18,5.92,108.497,11.788
					c40.368,5.803,83.654,15.228,125.988,32.85c21.406,8.098,43.055,16.467,62.697,28.195c19.275,11.563,37.86,27.476,39.885,49.884
					c3.582,21.773-2.363,44.523-15.46,61.237c-6.416,8.438-14.553,15.356-23.608,20.218c-8.907,4.69-19.392,8.268-28.92,12.168
					c-19.438,8.132-38.247,14.177-54.456,27.918c-1.904,2.128-3.997,5.694-3.229,9.675c0.814,3.696,2.749,5.764,4.38,7.772
					c3.442,3.764,6.967,6.556,10.371,9.457c6.856,5.716,13.39,10.772,18.253,16.644c4.842,5.811,8.196,12.269,7.999,18.385
					c-0.078,6.119-3.459,11.615-7.424,16.103c-8.286,8.947-18.184,14.656-25.986,19.312c-16.025,9.074-25.575,13.516-25.477,13.477
					c0.466-0.274-37.388,20.753-102.604,18.384c-64.516-0.035-151.031-23.929-244.021-24.991
					c-92.645-3.238-189.199,3.133-270.851,9.525c-40.706,3.6-77.767,5.801-108.646,4.038c-30.891-1.448-55.289-6.885-70.552-12.693
					c-14.218-5.084-26.697-12.211-36.86-20.983c-10.465-8.565-16.798-19.77-24.444-30.444
					c-7.499-10.535-15.746-20.386-25.636-27.979c-9.879-7.707-21.095-12.507-31.83-16.574c-10.775-4.094-21.357-7.808-30.713-13.648
					c-9.186-5.644-16.377-14.738-19.908-25.326C21.348,593.718,26.374,567.532,42.821,547.603z"/>
			</g>
		</g>
	</g>
</g>
<g>
	<path fill="#F6E619" d="M112.685,162.671c-16.438-30.137-36.986-61.644-46.576-94.521c23.288,1.37,47.945,26.027,71.233,23.288
		c23.288-1.37,19.178-28.767,28.767-47.945c6.85,9.589,27.397,36.986,39.726,34.247c13.699-1.37,28.767-35.617,39.726-43.835
		c13.699,32.876,12.329,80.822,27.397,108.219"/>
	<g>
		<g>
			<g>
				<path fill="#1A171B" d="M112.686,162.671c-8.318-20.474-15.233-33.811-27.018-56.971c-3.095-6.299-9.505-18.914-14.672-35.083
					l-0.959-3.066l-0.121-0.388l-0.031-0.097c0.855-1.117-7.56,9.501-3.973,5.012l0.046,0.006l0.186,0.023l0.747,0.092l1.505,0.179
					c2.013,0.167,4.085,0.776,6.174,1.292c4.189,1.165,8.454,2.999,12.768,4.955c8.631,4.015,17.419,9,26.921,12.74
					c9.358,3.796,20.442,5.644,30.184,2.659c10.886-3.488,14.883-14.1,16.676-20.469c3.597-13.921,5.612-21.792,5.832-21.802
					c0.068,0.052,0.564-2.081,2.126-5.338l0.285-0.639l0.147-0.333l0.075-0.169l0.009-0.021c5.961-0.478-8.112,0.623-6.656,0.521
					l0.03,0.042l0.061,0.084l1.02,1.414c0.712,0.983,1.494,2.041,2.337,3.171c1.698,2.252,3.643,4.789,5.877,7.509
					c4.519,5.406,9.874,11.762,17.34,17.619c3.892,2.643,7.957,6.183,14.916,6.153c6.397-0.104,11.546-4.381,14.957-7.973
					c7.249-7.629,12.469-16.267,18.037-24.164c2.737-3.919,5.501-7.774,8.383-10.745c0.353-0.421,0.718-0.666,1.071-0.991
					l0.529-0.465l0.262-0.234l0.13-0.118c-2.659-0.734,5.998,1.602-5.953-1.653l0.019,0.049l0.037,0.097l1.166,3.08
					c0.812,2.015,1.496,4.05,2.1,6.075c4.958,16.14,6.875,30.282,8.181,37.225c4.581,25.586,7.512,41.405,19.52,60.177
					c-7.382-20.787-7.274-35.578-11.828-61.471c-1.295-6.999-3.161-21.23-8.385-38.303c-0.638-2.135-1.366-4.302-2.239-6.482
					l-1.257-3.312l-0.04-0.104l-0.02-0.052c-11.969-3.268-3.346-0.882-6.03-1.601l-0.195,0.166l-0.389,0.334l-0.778,0.674
					c-0.502,0.453-1.08,0.903-1.482,1.377c-3.612,3.743-6.417,7.755-9.259,11.799c-5.606,8.006-10.907,16.581-17.204,23.165
					c-6.6,7.597-12.616,6.784-19.492,1.074c-6.492-5.065-11.756-11.19-16.051-16.351c-2.147-2.609-4.03-5.061-5.675-7.238
					c-0.816-1.094-1.575-2.118-2.267-3.071l-0.99-1.371l-0.059-0.082l-0.029-0.041c1.445-0.126-12.636,0.983-6.681,0.527
					l-0.011,0.025l-0.089,0.198l-0.175,0.389L162,43.123c-1.839,3.883-2.348,6.142-2.438,6.13
					c-0.199-0.131-2.626,9.242-5.925,22.034c-1.81,6.298-4.863,13.258-11.641,15.292c-7.367,2.174-16.187,0.972-24.899-2.536
					c-8.743-3.429-17.439-8.339-26.448-12.547c-4.543-2.059-9.118-4.041-13.928-5.387c-2.421-0.608-4.805-1.292-7.295-1.523
					l-1.845-0.216l-0.916-0.105l-0.228-0.025l-0.057-0.007c3.563-4.485-4.925,6.098-4.039,5.032l0.032,0.102l0.127,0.406
					l1.005,3.212c5.421,16.922,12.01,29.802,15.193,36.22C90.848,132.799,100.016,144.619,112.686,162.671z"/>
			</g>
		</g>
	</g>
</g>
<g>
	<path fill="#BABABA" d="M420.904,372.26c26.027,24.658,46.575,42.466,57.534,79.452c9.589,28.768,12.329,61.645,21.917,89.042
		c-34.247-1.37-64.383,9.589-98.63,15.068c-38.356,5.479-78.082,8.219-115.068,12.328c-75.343,9.589-152.055,1.37-226.027,9.589
		c-10.959-24.657-5.479-65.753,0-91.78c9.589-49.315,41.096-69.863,84.931-93.151c63.014-32.876,158.904-35.616,228.767-23.288
		c9.589,1.37,20.548,2.74,27.397,6.849"/>
	<g>
		<g>
			<g>
				<path fill="#1A171B" d="M420.904,372.261c18.193,18.866,34.076,34.633,44.383,55.062c10.304,20.346,15.137,44.449,21.307,75.16
					c1.744,8.328,4.125,21.001,9.074,36.424l0.92,2.928l0.059,0.186c-0.81,1.179,7.268-9.848,3.797-5.185l-0.098-0.002l-0.392-0.008
					l-0.787-0.015l-1.586-0.029c-2.127-0.056-4.301-0.085-6.514-0.001c-4.431,0.062-9.027,0.361-13.744,0.842
					c-9.447,0.92-19.379,2.639-29.606,4.775c-40.39,10.576-88.555,14.799-135.448,19.174c-23.445,2.189-46.037,5.341-67.027,6.324
					c-21.023,1.192-40.413,1.415-56.897,1.562c-32.977,0.147-54.352,0.365-54.347,0.402c0.006,0.142-21.355-0.157-54.501,2.239
					c-4.144,0.262-8.465,0.683-12.95,1.132l-3.395,0.331l-1.72,0.168l-0.866,0.085l-0.217,0.021l-0.109,0.011
					c-0.917-0.482,7.536,4.333,3.943,2.245l-0.145-0.376c-0.754-2.021-1.649-4.009-2.2-6.215c-2.604-8.642-3.543-18.541-3.592-28.86
					c0.069-20.591,3.246-43.525,9.134-65.522c6.111-21.94,20.671-40.942,39.227-54.15c18.436-13.187,38.544-24.3,57.134-32.136
					c38.011-15.228,72.213-18.473,88.822-20.228c31.013-2.851,55.533-2.476,78.691-1.553c11.577,0.636,22.848,1.402,34.435,2.768
					c11.538,1.908,24.007,1.038,36.036,6.551c-11.565-6.69-24.322-7-35.529-9.816c-11.534-2.324-22.836-3.909-34.503-5.209
					c-23.339-2.252-48.258-3.35-79.848-0.508c-16.944,1.777-51.711,4.982-91.085,20.728c-19.606,8.309-39.405,19.24-58.849,33.104
					c-19.43,13.728-35.603,34.721-42.053,58.209c-6.194,23.23-9.328,46.075-9.446,67.796c0.063,10.816,1.013,21.343,3.926,31.064
					c0.622,2.444,1.638,4.777,2.522,7.091l0.169,0.433c-3.567-2.019,4.901,2.882,4.075,2.362l0.107-0.011l0.214-0.021l0.853-0.084
					l1.695-0.165l3.346-0.327c4.419-0.444,8.678-0.861,12.773-1.121c32.728-2.378,54.041-2.096,54.026-2.234
					c0.004-0.038,21.232-0.246,54.29-0.385c16.528-0.142,36.027-0.357,57.275-1.557c21.327-1.001,44.141-4.175,67.349-6.335
					c46.355-4.28,96.101-8.735,136.276-19.293c10.093-2.11,19.729-3.773,28.795-4.658c4.531-0.464,8.917-0.75,13.13-0.81
					c2.108-0.082,4.17-0.054,6.187-0.003l1.505,0.027l0.746,0.013l0.371,0.007l0.093,0.002c-3.423,4.652,4.779-6.328,3.913-5.238
					l-0.056-0.177l-0.88-2.805c-4.743-14.738-7.129-27.241-8.877-35.542c-6.246-30.673-11.859-55.481-23.93-76.34
					C458.191,403.698,440.715,389.276,420.904,372.261z"/>
			</g>
		</g>
	</g>
</g>
<g>
	<path fill="#77B32C" d="M97.616,255.822c-38.356-10.959-47.945,23.288-34.247,53.425c10.959,26.027,41.096,54.794,64.384,69.863
		l0,0l0,0v2.74c-24.658,6.85-43.835,43.835-49.315,68.494c4.109-9.589,13.699-15.068,23.288-19.179c0,8.22,0,16.438,2.74,24.658
		c5.479-9.59,10.959-17.809,20.548-23.288c4.11,6.85,6.849,16.438,10.959,24.657c16.438-41.096,30.137-69.863,76.712-76.712
		c30.137-4.11,64.383-16.438,93.15-15.068c21.918,9.589,38.356,26.027,53.425,45.205l0,0l0,0c6.849-9.589,8.219-23.288,0-31.507
		c13.699-1.37,28.767,5.479,39.726,15.069c-1.37-8.219-4.109-17.809-9.589-24.658c9.589,0,21.917,1.37,31.507,4.11
		c-8.219-27.397-47.945-28.768-71.233-28.768c12.329-34.247,31.507-63.014,28.767-101.37c-1.37-19.178-10.959-42.466-32.877-43.835
		c-17.808-1.37-32.876,19.178-43.835,26.027"/>
	<g>
		<g>
			<g>
				<path fill="#1A171B" d="M97.616,255.821c-11.817-4.278-26.384-4.38-34.88,5.566c-8.169,9.65-8.874,22.746-6.831,34.342
					c4.911,23.709,20.491,44.932,43.405,66.117c3.133,2.895,7.186,6.366,12.071,10.278c2.478,1.916,5.13,3.981,8.062,6.043
					c1.438,1.063,2.984,2.082,4.561,3.142l1.191,0.8l0.3,0.202l0.075,0.05c1.618,2.959-2.112-3.979-1.735-3.229v0.177v0.712l0,1.437
					l0,0.362c-0.609,0.86,5.394-7.114,2.804-3.725l-0.096,0.033l-0.191,0.066l-0.767,0.269
					c-16.965,5.562-29.923,21.806-39.553,40.233c-2.396,4.69-4.592,9.605-6.545,14.73c-0.923,2.585-1.908,5.172-2.679,7.87
					c-0.387,1.35-0.842,2.676-1.176,4.059l-0.517,2.071l-0.259,1.038l-0.129,0.521l-0.065,0.26l-0.032,0.13
					c3.316,1.102-7.468-2.279,7.426,2.501c1.832-4.254,5.233-7.869,9.459-10.805c2.093-1.488,4.397-2.812,6.832-4.004
					c1.189-0.626,2.447-1.185,3.708-1.745l0.943-0.425l0.236-0.105c1.247,0.74-10.334-6.809-5.436-3.542v0.136l0.001,0.541
					l0.004,2.165c0.049,5.809,0.207,11.925,1.609,18.065c0.294,1.538,0.789,3.048,1.228,4.566l0.084,0.284
					c-1.542-0.071,13.55,1.363,7.195,0.69l0.067-0.115l0.269-0.461l0.539-0.922l1.078-1.846c1.471-2.407,2.977-4.768,4.614-6.96
					c3.266-4.395,7.074-8.139,11.576-10.873l0.829-0.534c4.781,1.229-6.394-1.767-5.225-1.401l0.06,0.109l0.12,0.219l0.239,0.436
					l0.958,1.747c0.581,1.249,1.203,2.438,1.741,3.748c1.127,2.54,2.164,5.238,3.245,7.918c1.093,2.703,2.188,5.431,3.474,8.15
					l0.481,1.019l0.241,0.509l0.12,0.254l0.061,0.127c3.21-0.094-7.101,0.391,7.212-0.179l0.801-1.98l1.597-3.947
					c2.133-5.245,4.333-10.374,6.595-15.377c4.574-9.96,9.721-19.253,15.976-27.004c12.29-15.936,30.195-22.997,45.626-25.425
					c32.375-5.289,52.568-11.117,52.605-10.672c0,0.022,5.101-1.168,14.149-2.704c4.523-0.725,10.042-1.591,16.384-2.005
					c3.167-0.213,6.549-0.373,10.082-0.254l1.336,0.025l0.675,0.012l0.169,0.003c0.33,0.066-2.559-0.604-1.3-0.301l0.076,0.038
					l0.306,0.151l2.483,1.221c1.669,0.839,3.413,1.631,5.136,2.559c13.762,7.559,27.876,20.085,40.72,36.179l2.443,3.012
					l0.615,0.757l0.077,0.095c12.554-0.269,3.522-0.143,6.343-0.233l0.147-0.237l0.294-0.475l1.172-1.912
					c1.503-2.574,2.792-5.352,3.5-8.335c1.601-5.853,1.718-12.59-1.058-18.742c-0.708-1.526-1.415-3.056-2.573-4.325l-1.597-1.986
					l-0.202-0.246l-0.102-0.123c2.092-6.009-2.984,8.037-2.397,6.601l0.471-0.009l0.942-0.021c2.503-0.206,5.055,0.081,7.624,0.391
					c5.125,0.913,10.202,2.719,15.042,5.155c2.371,1.325,4.758,2.638,6.972,4.257c1.156,0.735,2.244,1.565,3.291,2.45l1.601,1.288
					l0.401,0.322l0.201,0.161l0.1,0.08c-5.733,3.251,7.936-4.318,6.506-3.61l-0.207-1.121c-1.076-5.975-2.699-11.966-5.481-17.682
					c-0.633-1.445-1.508-2.815-2.307-4.206c-0.399-0.696-0.926-1.34-1.386-2.01l-0.716-0.994l-0.179-0.248l-0.09-0.124
					c-6.173,12.704-1.636,3.523-2.979,6.359l0.526,0.009c2.804,0.033,5.623,0.138,8.433,0.374
					c5.617,0.443,11.209,1.214,16.592,2.396c1.361,0.261,2.661,0.646,3.984,0.977l0.494,0.128l0.247,0.063
					c-0.987,1.102,9.198-9.324,4.854-4.984l-0.054-0.141l-0.433-1.125l-0.878-2.244c-1.176-2.953-2.897-5.778-4.915-8.188
					c-3.982-4.972-9.169-8.637-14.505-11.125c-10.724-5.095-21.842-6.847-32.243-7.827c-5.221-0.468-10.318-0.693-15.249-0.765
					l-3.668-0.046l-1.811-0.008l-0.9-0.004l-0.225-0.001c-3.326-4.705,4.39,6.419,3.624,5.226l0.038-0.103l0.154-0.41
					c0.826-2.181,1.607-4.336,2.434-6.445c3.305-8.432,6.747-16.234,9.821-23.438c6.236-14.371,10.579-26.529,12.676-34.898
					c7.681-30.302,4.942-59.671-14.324-76.713c-9.792-7.971-24.365-8.937-34.579-2.24c-10.473,6.037-17.681,15.836-27.87,23.768
					c10.935-6.966,19.221-16.113,29.419-20.85c9.876-5.262,21.564-3.209,29.356,3.711c15.363,14.982,17.865,41.761,10.452,70.344
					c-1.999,7.91-6.139,19.527-12.338,33.797c-3.056,7.153-6.533,15.019-9.923,23.659c-0.847,2.16-1.656,4.386-2.505,6.63
					l-0.158,0.421l-0.04,0.106c-0.84-1.091,7.039,9.973,3.762,5.286l0.221,0.001l0.884,0.004l1.778,0.009l3.584,0.046
					c4.807,0.07,9.713,0.291,14.687,0.738c9.895,0.907,20.291,2.663,29.508,7.07c4.621,2.143,8.768,5.161,11.835,9.005
					c1.58,1.875,2.883,4.01,3.788,6.314l0.684,1.738l0.349,0.868l0.044,0.109c-4.314,4.42,5.945-5.887,4.821-4.852l-0.272-0.071
					l-0.544-0.142c-1.451-0.366-2.905-0.788-4.364-1.071c-5.835-1.278-11.729-2.085-17.685-2.556
					c-2.976-0.249-5.974-0.362-8.993-0.396l-0.565-0.01c-1.397,2.854,2.927-6.393-3.167,6.399l0.069,0.098l0.139,0.196l0.558,0.782
					c0.36,0.532,0.776,1.012,1.098,1.583c0.641,1.142,1.36,2.225,1.892,3.46c2.34,4.784,3.835,10.159,4.814,15.633l0.19,1.025
					c-1.378,0.854,12.216-6.781,6.402-3.601l-0.112-0.091l-0.224-0.181l-0.449-0.363l-1.796-1.448
					c-1.18-0.989-2.401-1.918-3.694-2.748c-2.484-1.807-5.168-3.298-7.846-4.782c-5.473-2.759-11.297-4.856-17.394-5.929
					c-3.086-0.393-6.168-0.718-9.31-0.479l-1.169,0.036l-0.584,0.02c0.442-1.461-4.558,12.666-2.403,6.729l0.063,0.083l0.125,0.167
					l1.023,1.309c0.799,0.791,1.219,1.832,1.688,2.833c1.846,4.034,1.88,8.944,0.638,13.448c-0.514,2.277-1.544,4.459-2.705,6.442
					l-0.904,1.485l-0.223,0.372l-0.111,0.186c2.776-0.044-6.293,0.23,6.21-0.076l-0.079-0.097l-0.632-0.779l-2.513-3.097
					c-13.19-16.531-28.165-29.936-43.02-38.076c-1.856-1-3.739-1.862-5.541-2.764l-2.683-1.312l-0.331-0.162l-0.083-0.04
					c1.207,0.273-1.735-0.422-1.467-0.347l-0.184-0.004l-0.732-0.014l-1.449-0.027c-3.843-0.125-7.451,0.047-10.81,0.274
					c-6.73,0.445-12.448,1.348-17.123,2.098c-9.331,1.588-14.466,2.793-14.473,2.771c-0.134-0.421-20.451,5.417-52.354,10.604
					c-16.312,2.466-36.803,10.538-50.36,28.195c-6.867,8.512-12.292,18.395-17.012,28.659c-2.33,5.147-4.578,10.387-6.734,15.687
					l-1.612,3.983l-0.809,1.997c14.276-0.616,3.926-0.237,7.099-0.405l-0.055-0.115l-0.109-0.231l-0.218-0.463l-0.437-0.926
					c-1.168-2.468-2.223-5.088-3.294-7.739c-1.08-2.676-2.118-5.388-3.342-8.154c-0.565-1.375-1.281-2.768-1.932-4.152l-1.137-2.079
					l-0.288-0.52l-0.144-0.26l-0.072-0.13c1.14,0.227-10.134-2.631-5.424-1.375l-1.011,0.643
					c-5.473,3.31-10.112,7.923-13.784,12.885c-1.852,2.481-3.483,5.043-5.048,7.605l-1.125,1.924l-0.562,0.962l-0.281,0.481
					l-0.07,0.12c-6.402-0.589,8.64,0.96,7.081,0.734l-0.069-0.239c-0.36-1.277-0.785-2.529-1.031-3.849
					c-1.198-5.202-1.376-10.736-1.418-16.391l-0.003-2.138l-0.001-0.533l0-0.134c4.892,3.188-6.651-4.511-5.521-3.679l-0.254,0.114
					l-1.015,0.455c-1.353,0.603-2.704,1.203-4.037,1.901c-2.676,1.314-5.317,2.817-7.821,4.594
					c-5.005,3.464-9.63,8.211-12.171,14.141c14.868,4.823,4.139,1.269,7.465,2.313l0.03-0.12l0.06-0.24l0.12-0.48l0.239-0.958
					l0.476-1.913c0.305-1.274,0.738-2.525,1.097-3.782c0.715-2.516,1.651-4.962,2.516-7.394c1.842-4.836,3.921-9.488,6.181-13.914
					c8.992-17.509,21.501-32.159,34.896-36.34l0.607-0.222l0.151-0.056l0.075-0.027c-2.544,3.361,3.559-4.604,2.923-3.823v-0.362
					l0-1.437l0-0.712v-0.177c0.401,0.68-3.423-6.269-1.841-3.349l-0.071-0.048l-0.286-0.192l-1.134-0.761
					c-1.502-1.009-2.974-1.975-4.356-2.997c-2.808-1.97-5.365-3.959-7.753-5.801c-4.714-3.769-8.639-7.118-11.671-9.911
					c-22.323-20.575-37.335-40.129-43.052-61.524c-2.484-10.498-2.575-22.202,3.789-31.074
					C71.701,254.301,85.266,252.644,97.616,255.821z"/>
			</g>
		</g>
	</g>
</g>
<g>
	<path fill="#77B32C" d="M135.973,161.301c-32.877-2.74-57.534,36.986-49.315,67.124c9.589,34.247,49.315,41.096,79.452,42.466
		c49.315,2.74,167.124-26.028,143.836-98.63c-6.85-21.918-30.137-28.767-52.055-27.397"/>
	<g>
		<g>
			<g>
				<path fill="#1A171B" d="M135.973,161.301c-21.352-3.337-39.589,7.812-50.321,32.225c-2.484,6.556-7.9,21.884-1.472,39.699
					c3.022,8.609,9,17.268,17.177,23.405c8.151,6.171,17.786,10.218,27.311,12.871c38.547,10.13,74.39,2.82,74.117,2.996
					c-0.224-0.292,35.693-3.778,70.588-22.445c17.098-9.221,34.086-23.617,40.236-41.285c6.424-17.682,1.647-33.012-0.701-39.721
					c-5.072-13.559-15.832-20.291-25.225-23.074c-9.676-2.835-19.177-2.93-29.792-1.11c10.754,0.657,19.542,2.759,27.76,6.461
					c8.074,3.77,15.922,9.601,19.944,20.439c2.033,5.878,6.141,19.421,0.635,34.308c-5.124,14.999-20.354,28.335-36.62,37.092
					c-33.144,17.796-68.313,21.391-67.993,21.622c0.254-0.123-34.475,6.758-70.863-2.85c-17.912-4.443-34.518-16.074-39.187-31.381
					c-5.452-14.764-0.872-28.368,1.335-34.149c4.512-11.174,10.571-18.797,17.323-24.665
					C117.075,166.032,125.123,161.789,135.973,161.301z"/>
			</g>
		</g>
	</g>
</g>
<g>
	<path fill="#FFFFFF" d="M193.507,148.973c-1.37-17.808-17.808-30.137-34.247-19.178c-13.699,8.219-15.068,32.877-13.699,47.945
		c5.479,41.096,53.425,60.274,57.534,8.219c17.809,57.534,67.124,15.068,57.535-30.137c-9.589-41.096-80.822-49.315-67.124,0"/>
	<g>
		<g>
			<g>
				<path fill="#1A171B" d="M193.507,148.973c0.367-9.913-3.89-19.45-12.904-24.346c-9.402-4.682-22.181-2.291-30.872,8.943
					c-4.645,5.981-8.898,19.7-8.499,35.995c-0.601,16.447,7.297,37.414,24.603,47.671c8.244,5.183,20.702,6.026,28.375-0.618
					c7.549-6.261,9.946-14.577,11.452-20.945c0.651-3.274,1.037-6.256,1.271-8.887l0.052-0.489
					c-3.399,0.368,7.615-0.867-7.621,0.817l0.01,0.029l0.02,0.057l0.04,0.114l0.078,0.227l0.306,0.888l0.578,1.677
					c0.389,1.069,0.67,2.065,1.061,2.934c1.431,3.506,2.383,5.44,2.425,5.429c0.486-0.486,2.281,9.058,15.225,16.853
					c6.686,3.631,16.906,3.017,24.394-2.146c7.653-4.921,13.457-12.733,17.254-21.421c7.536-17.197,6.971-39.637-4.248-53.505
					c-10.714-13.812-25.018-18.117-31.657-19.394c-12.445-2.456-24.575,0.613-30.687,9.215c-5.961,8.747-4.282,18.729-0.655,27.753
					c-1.377-9.821-0.207-18.683,5.095-24.141c5.199-5.372,14.082-7.227,24.751-5.171c5.555,1.056,18.006,4.942,26.901,16.495
					c9.195,11.048,9.884,30.531,3.297,45.627c-6.003,15.564-21.85,25.445-30.977,19.681c-9.028-5.245-11.541-13.797-11.717-13.335
					c-0.036,0.025-0.857-1.665-2.137-4.796c-0.348-0.765-0.603-1.691-0.955-2.658l-0.525-1.525l-0.279-0.806l-0.071-0.207
					l-0.036-0.104l-0.018-0.052l-0.009-0.026c-15.238,1.703-4.226,0.488-7.627,0.875l-0.049,0.441
					c-0.215,2.387-0.566,5.056-1.135,7.925c-1.243,5.58-3.584,12.342-8.66,16.424c-4.91,4.236-12.82,3.988-19.612-0.041
					c-13.929-8.19-21.327-26.298-20.654-40.948c-0.375-15.28,3.625-27.14,7.002-31.392
					C169.406,121.462,189.45,129.366,193.507,148.973z"/>
			</g>
		</g>
	</g>
</g>
<g>
	<g>
		<g>
			<g>
				<path fill="#1A171B" d="M177.068,169.52c-3.001-0.479-5.293-0.569-7.022,1.805c-0.938,0.898-4.011,5.703-2.983,11.034
					c1.126,5.162,4.534,7.702,4.391,7.695c0,0,0.175,0.168,0.487,0.466l0.568,0.537l0.354,0.33l0.192,0.179l0.1,0.092l0.051,0.047
					l0.025,0.023l0.013,0.012l0.006,0.006l0.003,0.003c2.323-0.128-5.196,0.291,5.21-0.286c0.933-1.15,2.297-2.227,3.499-4.281
					c1.266-1.622,2.401-4.787,1.824-7.813c-0.962-3.058-2.642-4.243-3.355-4.908c-2.73-1.896-4.845-1.09-7.473,0.539
					c1.026,3.048,1.496,4.697,2.589,5.544c0.583,0.93,1.093-0.064-0.234,2.466c-0.51,1.037-1.787,2.141-2.38,2.925
					c10.405-0.576,2.883-0.161,5.205-0.29l-0.002-0.002l-0.004-0.004l-0.008-0.008l-0.016-0.016l-0.032-0.031l-0.062-0.061
					l-0.121-0.117l-0.224-0.214l-0.364-0.342c-0.202-0.188-0.317-0.292-0.317-0.292c0,0.042-1.909-1.806-2.215-3.667
					c-0.365-1.761,0.798-4.189,1.586-4.985C177.298,174.377,177.322,172.795,177.068,169.52z"/>
			</g>
		</g>
	</g>
</g>
<g>
	<g>
		<g>
			<g>
				<path fill="#1A171B" d="M223.644,162.671c-3.258-0.168-5.454,0.073-7.249,2.532c-0.48,0.657-1.437,2.043-2.294,4.23
					c-0.855,1.94-1.389,6.501,1.572,9.368c5.637,4.62,10.167,2.583,10.151,2.957c-0.09-0.474,4.741,0.943,9.376-5.362
					c2.332-4.024-0.869-8.648-1.491-9.137c-0.822-1.173-1.375-2.509-2.714-3.833c-3-2.294-4.772-1.29-5.647-0.84
					c-1.122,0.603-1.963,1.593-3.074,2.825c1.917,1.967,4.377,5.022,4.043,2.962c-1.646,1.06,0.093,1.216,0.843,3.225
					c0.988,1.316,0.818,1.097,0.985,1.447c-0.057,0.037,1.404,0.081,0.346-0.136c-0.426,0.189-3.69,1.409-3.496,1.093
					c0.28,0.119-3.227,0.094-3.682-0.66c-0.45,0.748,0.598-2.869,1.512-3.722C224.002,167.821,223.935,165.99,223.644,162.671z"/>
			</g>
		</g>
	</g>
</g>
<g>
	<path fill="#A5C53F" d="M319.534,231.165c-36.986,10.959,12.329,39.726,8.219,6.849c-1.37-8.219-9.589-8.219-15.068-4.109"/>
	<g>
		<g>
			<g>
				<path fill="#1A171B" d="M319.534,231.164c-4.155-1.214-7.345-1.729-11.736,1.175c-1.072,0.83-3.77,2.518-5.388,6.697
					c-1.772,4.399,0.458,9.979,3.479,12.666c5.938,6.095,14.372,5.62,14.346,5.403c-0.042-0.042,2.107,0.037,5.125-1.619
					c3.124-1.625,5.778-5.877,6.221-9.804c0.458-4.005,0.647-7.476-0.923-11.559c-1.664-3.978-5.446-6.065-7.116-6.305
					c-6.454-1.333-9.334,2.182-10.857,6.084c4.315,0.034,6.688,0.838,8.724,1.419c0.616,0.133,1.334,0.545,2.025,1.888
					c0.651,1.267,0.758,4.8,0.41,7.146c-0.722,5.183-4.315,4.847-4.38,4.985c0.332,0.131-4.453,0.372-8.017-3.185
					c-3.654-3.485-0.895-6.173,0.967-7.528C315.206,236.658,316.848,234.669,319.534,231.164z"/>
			</g>
		</g>
	</g>
</g>
<g>
	<path fill="#A5C53F" d="M345.562,243.493c-23.288,21.918,21.918,12.329,9.589-1.37c-4.11-4.11-6.85-2.74-12.329,0"/>
	<g>
		<g>
			<g>
				<path fill="#1A171B" d="M345.561,243.493c-3.571,0.066-5.996,0.386-8.221,3.396c-0.479,1.001-2.021,2.209-2.452,6.32
					c-0.349,2.149,1.69,5.534,3.885,6.251c2.067,0.925,3.758,0.935,5.301,0.913c5.976-0.337,10.207-3.216,10.262-3.202
					c-0.54-0.281,5.885-1.57,6.901-10.303c-0.703-8.307-8.193-11.525-11.531-11.202c-5.026,0.678-5.516,3.214-6.884,6.457
					c3.345,1.123,5.915,1.325,7.134,1.34c-0.14-0.648,3.523,1.782,3.433,3.495c0.332,1.279-3.177,3.738-3.049,3.515
					c0.128-0.05-3.097,1.9-6.597,2.058c-0.775,0.038-1.535-0.114-1.586-0.163c-0.761,1.593-1.533,1.049,0.417,1.007
					c0.245-0.066,0.805-1.659,1.205-2.081C345.189,249.2,345.446,247.121,345.561,243.493z"/>
			</g>
		</g>
	</g>
</g>
<g>
	<path fill="#A5C53F" d="M182.548,383.219c-26.027-13.699-32.876-50.685-20.548-75.342c13.699-30.137,43.835-39.726,73.973-45.206
		c32.876-5.479,56.165-6.85,63.014,30.137c4.109,20.548,8.219,53.425,2.74,71.233"/>
	<g>
		<g>
			<g>
				<path fill="#1A171B" d="M182.548,383.219c-11.932-9.952-16.886-19.222-21.146-35.896c-1.025-4.514-2.465-14.144-0.083-25.389
					c2.278-11.057,9.164-23.791,18.779-32.327c19.83-17.452,46.083-20.33,45.532-20.866c-0.009,0.055,6.033-1.463,15.448-2.93
					c9.358-1.298,22.701-3.772,34.565-0.365c12.089,3.342,17.513,16.774,19.518,28.26c2.353,11.829,3.548,21.68,4.084,26.578
					c1.552,18.147,3.729,28.243,2.481,43.756c6.181-14.54,6.798-26.037,5.276-44.576c-0.521-5.057-1.727-15.14-4.138-27.295
					c-1.283-6.119-3.007-13.132-6.877-19.688c-3.744-6.583-10.482-12.318-17.949-14.511c-15.007-4.138-28.537-1.092-38.167,0.115
					c-9.794,1.538-15.934,3.095-15.961,3.046c0.58,0.688-26.51,3.1-49.084,22.66c-10.981,9.884-18.499,23.667-21.188,36.501
					c-2.699,12.797-1.04,23.575,0.145,28.697C158.476,367.886,168.029,377.751,182.548,383.219z"/>
			</g>
		</g>
	</g>
</g>
<g>
	<g>
		<g>
			<g>
				<path fill="#1A171B" d="M127.753,231.165c-0.606,3.291-0.701,5.413,1.082,7.617c0.964,1.185,3.975,4.725,7.43,7.544
					c3.371,2.914,7.276,4.688,7.25,4.69c-0.049,0.029,3.815,1.932,8.376,2.685c4.565,0.845,9.387,0.368,10.944,0.194
					c2.891-0.395,4.306-2.055,6.013-4.922c-2.739-2.008-4.339-3.065-6.835-2.835c-1.34,0.091-5.392,0.466-8.82-0.177
					c-3.443-0.566-6.291-1.922-6.276-1.964c-0.303,0.779-10.603-7.505-12.137-10.264
					C133.065,231.797,131.127,231.458,127.753,231.165z"/>
			</g>
		</g>
	</g>
</g>
<g>
	<g>
		<g>
			<g>
				<path fill="#1A171B" d="M119.535,231.165c2.625,0.99,3.975,1.53,4.973,0.765c0.956-0.901,6.885-4.912,6.948-4.877
					c-0.037-0.012,6.369-3.708,7.703-4.521c1.185-0.761,1.206-2.341,0.924-5.065c-2.284-1.549-3.618-2.324-4.834-1.685
					c-1.301,0.644-7.887,4.595-7.893,4.635c-0.009-0.077-6.652,4.242-7.835,5.516C118.396,226.957,118.638,228.626,119.535,231.165z
					"/>
			</g>
		</g>
	</g>
</g>
<g>
	<g>
		<g>
			<g>
				<path fill="#1A171B" d="M486.658,559.932c4.326,2.121,7.093,3.456,12.157,3.244c2.722-0.14,11.003-0.474,18.724-2.165
					c7.772-1.383,14.579-5.601,14.499-5.739c-0.411,0.216,7.971-4.512,9.119-14.24c1.671-9.245-4.24-18.102-6.923-20.007
					c-4.658-3.912-8.854-3.84-13.329-2.188c3.625,3.269,5.081,5.394,8.026,7.909c1.604,1.084,5.553,7.172,4.452,13.197
					c-0.585,5.903-5.827,8.867-5.736,8.881c0.103,0.035-4.77,3.203-11.774,4.517c-6.828,1.496-14.818,1.855-17.464,2.046
					C493.521,555.71,490.627,557.081,486.658,559.932z"/>
			</g>
		</g>
	</g>
</g>
<g>
	<g>
		<g>
			<g>
				<path fill="#1A171B" d="M526.384,570.891c4.931,2.381,9.111,3.1,15.057,1.14c3.284-0.947,12.602-5.161,19.78-10.985
					c7.341-5.617,12.409-12.567,12.407-12.549c-0.23-0.092,5.859-6.445,7.782-16.654c1.036-5.021-0.166-11.212-3.215-15.098
					c-2.916-3.889-6.236-5.886-7.816-6.656c-5.993-3.015-10.029-2.333-15.227-0.842c4.356,3.391,7.021,5.321,11.451,7.668
					c2.524,1.111,8.919,6.154,7.06,13.657c-1.237,7.264-6.46,13.288-6.27,13.236c0.005-0.036-4.409,6.012-11.021,11.063
					c-6.467,5.218-14.716,8.934-17.497,9.792C533.737,566.441,531.218,568.263,526.384,570.891z"/>
			</g>
		</g>
	</g>
</g>
<g>
	<g>
		<g>
			<g>
				<path fill="#1A171B" d="M111.315,603.768c12.231,3.294,20.625,5.181,35.541,5.825c8.073,0.406,32.365,1.103,54.652,0.695
					c22.288-0.299,42.532-1.793,42.532-1.749c-0.008-0.065,20.258-1.273,42.402-4.393c22.167-2.952,46.033-8.487,53.822-10.952
					c14.486-4.113,22.156-8.503,32.696-15.455c-12.498,2.365-20.621,4.037-34.798,7.942c-7.599,2.341-30.967,7.764-52.811,10.691
					c-21.81,3.09-41.862,4.319-41.851,4.384c-0.001-0.044-20.022,1.402-42.117,1.683c-22.09,0.388-46.204-0.303-54.224-0.642
					C132.343,601.278,123.89,602.09,111.315,603.768z"/>
			</g>
		</g>
	</g>
</g>
<g>
	<g>
		<g>
			<g>
				<path fill="#1A171B" d="M190.767,627.055c6.544,2.808,11.16,4.337,19.271,4.342c8.876,0.819,52.522-3.727,52.434-4.262
					c0.087,0.421,43.127-7.304,51.506-9.702c7.833-1.828,11.965-4.201,17.885-8.186c-7.093-0.859-11.798-1.121-19.594,0.574
					c-8.381,2.26-50.856,10.013-50.91,9.593c0.042,0.531-42.8,4.859-51.391,4.182C202.06,623.71,197.591,624.887,190.767,627.055z"
					/>
			</g>
		</g>
	</g>
</g>
<g>
	<g>
		<g>
			<g>
				<path fill="#1A171B" d="M689.397,621.575c6.93,0.402,10.675,1.109,17.012,2.838c3.654,0.428,13.212,6.715,23.028,13.697
					c9.927,7.187,22.14,8.463,22.354,8.043c-0.045-0.051,3.271,0.151,7.597-1.126c4.357-1.169,9.514-3.671,14.562-5.832
					c2.53-1.064,5.068-1.996,7.451-2.484c1.274-0.487,4.837-0.071,6.933,0.076c4.774,0.439,8.844,1.254,10.877,1.562
					c7.529,1.251,12.503,0.729,18.952-1.705c-6.379-2.571-10.037-4.615-17.606-5.979c-2.063-0.344-6.161-1.194-11.483-1.7
					c-2.915-0.103-4.97-0.771-9.266,0.051c-3.194,0.663-6.164,1.792-8.899,2.942c-10.826,5.471-19.134,6.93-19.095,6.394
					c0.35,0.26-9.103-0.395-18.122-6.838c-8.771-6.288-20.156-13.944-25.146-14.604
					C700.038,614.673,694.496,617.282,689.397,621.575z"/>
			</g>
		</g>
	</g>
</g>
<g>
	<g>
		<g>
			<g>
				<path fill="#1A171B" d="M783.918,479.109c6.714,1.751,10.811,2.727,17.42,4.353c3.882,0.198,13.087,6.602,23.665,13.265
					c10.413,6.487,22.95,7.026,22.8,6.595c0.063,0.491,11.597-1.213,22.197-3.444c10.479-2.023,21.883,1.767,26.313,2.916
					c7.996,1.886,14.083,0.125,19.111-4.505c-7.031-0.157-10.308-1.491-17.29-3.081c-3.469-0.902-16.663-5.472-29.311-3.092
					c-11.942,2.466-21.123,3.815-21.15,3.406c-0.011,0.291-9.233,0.116-18.852-5.653c-8.829-5.595-20.463-13.64-25.514-13.954
					C794.88,473.99,789.932,475.95,783.918,479.109z"/>
			</g>
		</g>
	</g>
</g>
<g>
	<g>
		<g>
			<g>
				<path fill="#1A171B" d="M1020.904,31.889c-2.375-0.717-3.895-0.594-4.189,0.212c-0.467,0.938-0.191,4.862-0.043,4.777
					c-0.13,0.055,0.857,3.549,1.561,4.269c0.363,0.595,2.044,0.423,4.042-1.038c1.517-2.123,2.739-2.655,2.665-2.945
					c-0.086-0.087-0.683-1.711-0.597-1.702c-0.073-0.067-0.04-1.461-0.037-1.564C1024.32,33.776,1023.005,33.379,1020.904,31.889z"
					/>
			</g>
		</g>
	</g>
</g>
</svg>
